
<svg xmlns="http://www.w3.org/2000/svg" version="1.1" viewBox="0.00 0.00 643.00 127.00">
<path fill="#000000" d="
  M 354.56 0.00
  L 363.79 0.00
  Q 376.47 0.95 386.19 6.30
  C 408.13 18.37 410.09 48.71 399.02 68.76
  C 380.75 101.84 340.05 121.03 303.25 121.06
  Q 296.74 121.07 296.26 114.46
  C 295.60 105.34 297.94 98.86 302.65 89.49
  C 313.99 66.91 328.75 44.99 343.95 24.87
  A 0.45 0.45 0.0 0 0 343.52 24.16
  C 329.08 26.38 313.04 30.66 300.06 37.55
  A 0.74 0.74 0.0 0 0 300.50 38.94
  L 318.24 36.69
  A 0.27 0.27 0.0 0 1 318.35 37.21
  Q 306.25 41.06 294.80 46.33
  C 290.89 48.13 286.91 47.11 286.53 42.33
  C 285.31 26.85 291.70 19.66 304.96 13.44
  Q 328.59 2.35 354.56 0.00
  Z
  M 347.21 24.32
  C 348.14 27.75 347.87 31.10 345.94 34.19
  C 334.58 52.39 324.17 68.18 313.12 89.30
  C 309.17 96.86 304.22 104.16 318.25 103.97
  C 344.03 103.63 375.01 89.58 389.81 67.81
  C 395.90 58.86 398.12 46.23 392.99 36.59
  C 384.96 21.53 361.91 22.72 347.83 23.46
  Q 346.98 23.51 347.21 24.32
  Z"
/>
<path fill="#000000" d="
  M 110.50 127.00
  L 108.71 127.00
  Q 105.92 125.78 103.42 124.07
  Q 73.42 103.52 43.65 83.60
  Q 42.88 83.08 42.32 83.83
  L 28.78 102.08
  A 1.51 1.51 0.0 0 0 28.48 103.07
  C 28.81 108.79 11.79 124.11 8.13 118.58
  C 6.77 116.52 7.93 113.03 9.28 111.28
  Q 16.44 102.04 35.62 78.36
  A 0.89 0.87 -38.6 0 0 35.73 77.44
  C 28.53 62.63 43.32 57.51 54.51 51.58
  Q 56.70 50.42 58.17 48.50
  Q 66.60 37.53 74.04 25.88
  C 74.54 25.10 74.81 24.16 75.10 23.25
  Q 75.22 22.87 75.10 22.49
  Q 74.47 20.49 72.47 20.94
  Q 62.92 23.09 49.65 28.84
  Q 28.97 37.80 8.97 48.19
  C 5.85 49.81 1.81 48.88 0.89 45.33
  C 0.09 42.21 3.19 34.83 4.10 31.39
  C 6.91 20.76 15.42 15.68 24.86 11.26
  A 1.55 1.54 -34.8 0 1 26.60 11.57
  Q 26.84 11.83 26.12 12.34
  Q 21.96 15.30 18.83 19.32
  A 0.34 0.34 0.0 0 0 19.21 19.85
  C 36.64 13.83 53.39 7.83 72.24 4.29
  C 77.79 3.25 80.53 4.26 83.37 9.30
  C 86.33 14.53 87.38 17.75 83.97 22.96
  Q 77.37 33.06 70.51 43.01
  A 0.33 0.32 3.5 0 0 70.93 43.48
  Q 102.13 27.61 133.24 11.19
  Q 135.13 10.19 136.66 11.86
  A 0.96 0.96 0.0 0 1 136.86 12.84
  C 134.88 18.49 129.81 24.43 125.26 28.75
  Q 121.93 31.90 117.92 30.41
  Q 117.50 30.25 117.09 30.45
  L 60.56 58.25
  A 1.41 1.30 -84.3 0 0 60.02 58.73
  L 53.10 69.09
  A 0.76 0.75 -56.7 0 0 53.31 70.13
  Q 76.47 85.56 99.49 101.37
  Q 107.83 107.09 110.15 110.62
  Q 115.06 118.10 110.50 127.00
  Z"
/>
<path fill="#000000" d="
  M 179.08 60.98
  A 0.68 0.67 72.4 0 0 178.60 61.92
  C 180.27 65.58 183.43 70.48 180.73 74.46
  C 176.75 80.32 168.50 89.02 170.02 96.30
  C 171.08 101.42 176.11 101.43 180.16 99.64
  C 194.45 93.30 207.64 74.90 215.69 61.95
  Q 215.96 61.52 215.45 61.46
  Q 207.69 60.68 200.21 62.82
  A 0.72 0.72 0.0 0 1 199.32 61.91
  C 201.79 53.98 208.19 43.54 216.75 42.53
  Q 222.96 41.79 228.87 42.03
  A 1.27 1.27 0.0 0 0 230.04 41.35
  C 233.96 33.75 240.58 23.96 250.70 27.03
  A 1.80 1.79 27.0 0 1 251.61 29.83
  L 242.58 41.80
  A 0.53 0.53 0.0 0 0 242.96 42.64
  L 250.67 43.30
  A 0.53 0.53 0.0 0 1 251.09 44.09
  Q 245.66 53.74 238.91 62.50
  Q 238.61 62.90 238.11 62.86
  L 227.30 62.13
  Q 226.74 62.09 226.43 62.58
  C 221.94 69.81 207.51 93.79 213.03 102.10
  C 217.63 109.01 235.63 92.98 239.81 89.67
  A 0.35 0.34 -18.2 0 1 240.37 89.95
  L 240.19 94.68
  Q 240.17 95.21 239.82 95.60
  C 233.66 102.38 202.28 136.08 195.97 113.01
  C 194.38 107.18 199.22 95.72 201.67 89.87
  A 0.30 0.30 0.0 0 0 201.19 89.53
  C 190.51 98.94 182.09 110.55 169.57 117.82
  C 165.87 119.96 159.21 121.44 157.49 115.94
  C 155.27 108.80 158.49 98.62 161.23 91.98
  A 0.40 0.40 0.0 0 0 160.56 91.56
  C 156.08 96.60 137.69 118.98 130.90 116.79
  Q 129.61 116.37 128.04 114.66
  C 120.00 105.89 115.32 90.14 124.33 80.00
  C 136.33 66.48 155.94 52.09 174.24 49.22
  C 179.41 48.41 181.94 50.89 183.45 55.55
  C 184.65 59.26 182.15 60.39 179.08 60.98
  Z
  M 132.70 102.37
  L 134.23 102.99
  A 1.10 1.08 42.6 0 0 135.11 102.96
  C 151.19 95.20 162.98 77.98 173.00 63.80
  A 0.13 0.13 0.0 0 0 172.84 63.60
  C 161.64 68.30 123.52 84.52 132.09 101.81
  A 1.17 1.14 86.9 0 0 132.70 102.37
  Z"
/>
<ellipse fill="#000000" cx="0.00" cy="0.00" transform="translate(582.76,39.00) rotate(124.9)" rx="11.00" ry="7.38"/>
<path fill="#000000" d="
  M 643.00 88.27
  L 643.00 94.06
  Q 633.00 104.33 621.71 111.70
  C 611.06 118.65 601.19 119.01 591.68 110.25
  Q 586.26 105.26 585.39 97.90
  Q 585.24 96.56 584.42 97.63
  C 578.74 105.05 567.49 117.33 557.56 118.01
  C 547.04 118.74 543.24 104.73 542.91 96.11
  Q 542.88 95.35 542.26 95.80
  C 535.39 100.86 529.20 104.49 521.82 100.00
  A 1.12 1.10 -51.8 0 0 520.46 100.17
  C 515.09 105.61 509.17 111.49 502.80 115.65
  C 490.23 123.88 483.25 107.41 482.13 97.96
  Q 482.05 97.26 481.57 97.78
  C 476.19 103.67 460.15 121.14 450.86 119.62
  C 440.97 118.00 447.91 97.20 450.43 91.62
  A 0.34 0.34 0.0 0 0 449.87 91.25
  Q 441.09 101.07 431.90 110.40
  C 428.22 114.14 421.91 119.95 417.04 114.66
  C 408.98 105.89 404.32 90.17 413.33 80.01
  Q 431.42 59.61 457.27 50.49
  C 463.32 48.35 468.66 47.36 472.01 54.45
  C 474.11 58.89 471.85 60.06 468.01 61.03
  Q 467.28 61.21 467.59 61.90
  C 469.27 65.59 472.42 70.49 469.74 74.47
  C 465.65 80.51 459.14 87.12 458.88 94.49
  C 458.66 100.72 464.71 102.10 469.64 99.62
  Q 475.11 96.86 481.53 91.50
  Q 482.47 90.72 482.41 89.82
  Q 482.38 89.33 482.55 88.86
  C 485.49 80.65 496.25 60.29 505.46 58.27
  C 507.70 57.78 514.43 58.07 515.04 61.51
  Q 515.34 63.25 512.85 67.89
  Q 506.24 80.22 495.56 89.23
  Q 495.18 89.55 495.07 90.04
  Q 494.03 94.50 493.28 99.00
  C 492.40 104.27 497.34 104.97 500.70 102.44
  Q 508.95 96.22 515.27 89.58
  Q 515.61 89.22 515.68 88.73
  Q 516.47 82.85 520.21 75.95
  C 522.09 72.47 536.57 49.31 540.78 59.50
  C 543.83 66.85 533.08 84.30 528.54 89.89
  Q 527.85 90.74 528.41 91.68
  C 532.39 98.46 538.50 92.50 542.48 89.67
  A 1.27 1.26 77.3 0 0 542.99 88.86
  C 545.11 77.72 559.26 55.70 571.96 55.03
  C 582.76 54.46 574.44 67.88 572.24 71.34
  C 568.88 76.61 563.24 81.62 558.54 86.54
  C 553.13 92.21 554.45 102.36 563.77 101.98
  C 570.89 101.68 578.66 95.22 584.14 90.60
  C 585.13 89.77 585.03 88.88 585.88 87.98
  Q 600.45 72.64 614.84 57.13
  Q 616.27 55.59 616.93 53.46
  C 618.85 47.24 622.17 42.23 629.25 44.57
  A 2.28 2.28 0.0 0 1 630.75 47.25
  C 629.38 53.10 634.28 63.11 634.44 69.15
  C 634.84 84.08 623.51 94.64 611.67 101.82
  A 0.47 0.47 0.0 0 0 611.85 102.69
  Q 620.35 103.77 627.86 99.12
  Q 635.49 94.40 643.00 88.27
  Z
  M 436.17 76.66
  C 428.22 81.60 417.77 88.94 420.31 99.99
  Q 420.86 102.36 423.34 103.03
  A 1.39 1.38 -51.1 0 0 424.34 102.92
  C 440.33 94.66 451.95 78.23 461.99 63.81
  A 0.21 0.21 0.0 0 0 461.73 63.50
  C 453.14 67.40 442.46 72.75 436.17 76.66
  Z
  M 616.30 65.76
  L 593.73 88.05
  A 0.41 0.41 0.0 0 0 593.93 88.74
  C 600.48 90.30 602.13 93.17 605.62 98.40
  Q 605.93 98.86 606.44 98.66
  C 621.96 92.39 618.47 79.00 616.88 65.97
  Q 616.80 65.26 616.30 65.76
  Z"
/>
</svg>
