<?xml version="1.0" encoding="UTF-8"?><svg id="black" xmlns="http://www.w3.org/2000/svg" viewBox="0 0 767.15 136.31"><defs><style>.cls-1{fill:#231f20;}</style></defs><path class="cls-1" d="m275.04,78.76c-1.64-1.09-2.45-2.57-2.45-4.44,0-.47.04-.93.12-1.4.47-2.57,1.4-5.06,2.8-7.48,1.79-3,2.99-4.69,3.59-5.08.6-.39,1.33-.58,2.19-.58,1.4,0,2.67.31,3.8.93.9.55,1.34,1.21,1.34,1.99,0,.66-.6,1.66-1.81,2.98-1.13,1.17-2.14,2.54-3.04,4.12-.9,1.58-1.5,2.87-1.81,3.89-.31,1.01-.47,1.75-.47,2.22,0,.74.29,1.11.88,1.11,1.32,0,4.44-1.62,9.35-4.85,3-1.95,5.77-3.62,8.33-5.02,2.55-1.4,4.08-2.1,4.59-2.1.55.08.82.37.82.88s-.29.8-.88.88h-.06c-1.13,0-4.3,1.89-9.52,5.67-3.93,2.84-6.74,4.75-8.41,5.73-1.44.9-2.64,1.39-3.59,1.49-.96.1-1.57.15-1.84.15-1.32,0-2.63-.35-3.91-1.05Z"/><path class="cls-1" d="m295.37,84.84c-.66,0-1.3-.08-1.93-.23-1.05-.31-1.58-.82-1.58-1.52,0-1.4.92-4.03,2.75-7.89,4.17-10.63,7.69-15.95,10.58-15.95.39,0,.77.1,1.14.29.37.2,3.71,1.64,3.71,2.69,0,.51-.16,1.13-.47,1.87v.18c.27,0,1.77-1.69,4.5-5.08,1.44-1.83,2.58-3.22,3.42-4.18.84-.95,1.6-1.48,2.28-1.58.68-.1,1.22-.15,1.61-.15.58,0,1.17.08,1.75.23,2.38.43,3.56,1.48,3.56,3.16,0,1.01-.88,3.91-2.63,8.71-1.17,3.31-2.04,6.02-2.63,8.12s-.88,3.41-.88,3.91c0,.2.04.31.12.35.55-.19,2.34-2.12,5.38-5.78,2.06-2.45,4.09-4.74,6.08-6.87,1.99-2.12,3.45-3.26,4.38-3.42,1.25,0,2.49.23,3.74.7,1.25.47,2.08,1.19,2.51,2.16.12.47.18.99.18,1.58,0,1.21-.27,2.67-.82,4.38l-1.75,6.13c-.31,1.01-.47,1.67-.47,1.99,0,1.56.47,2.34,1.4,2.34.35,0,.78-.12,1.29-.35,1.87-.86,4.11-2.52,6.72-5,2.61-2.47,5.02-4.93,7.22-7.36,2.2-2.43,5.09-5.81,5.29-5.81,0,0-3.91,5.8-6.84,9-2.49,2.65-5.16,5.17-8,7.57-2.84,2.4-5.69,3.83-8.53,4.29l-.93.06c-2.1,0-3.56-.6-4.38-1.81-.93-1.36-1.42-2.82-1.46-4.38l-.06-.99c0-1.29.35-3.08,1.05-5.38.31-.86.47-1.36.47-1.52.35-1.05.53-1.83.53-2.34,0-.27-.06-.41-.18-.41-.2,0-.58.35-1.17,1.05-1.71,2.38-3.56,4.75-5.55,7.13-1.71,2.07-3.47,3.83-5.26,5.29-1.79,1.46-3.54,2.19-5.26,2.19-.82,0-1.62-.15-2.4-.47-1.25-.58-1.87-1.91-1.87-3.97,0-3.08,1.36-7.73,4.09-13.96,1.32-3.12,1.99-4.77,1.99-4.97-.16,0-1.01.92-2.57,2.75-3.47,4.13-7.17,8.88-11.1,14.26-3.31,4.52-5.39,7.27-6.25,8.24-.55.47-1.09.72-1.64.76h-1.11Z"/><path class="cls-1" d="m332.89,131.35c-.55-.47-1.05-1.39-.82-2.69.38-2.16,15.46-34.24,18.11-41.13,2.1-5.45,3.9-10.2,5.38-14.26.7-1.91,1.25-3.35,1.64-4.32,2.73-7.32,4.97-11.33,6.72-12.04.27-.12.64-.18,1.11-.18,1.36,0,2.8.39,4.32,1.17.93.51,1.4,1.13,1.4,1.87,0,.39-.12.91-.35,1.55s-.52,1.26-.85,1.84c-.33.58-.58,1.05-.76,1.4s-.26.56-.26.64l3.45-1.4c2.42-1.01,4.59-1.52,6.54-1.52,5.1,0,7.75,3.06,7.95,9.17l8-4.03c4.09-2.02,6.13-3.24,6.13-3.65s.31-.61.93-.61c.58,0,.88.23.88.7,0,.74-1.72,2.08-5.14,4.03-5.53,3.16-9.25,5.22-11.16,6.19-1.17,3.78-3.33,7.2-6.49,10.25-3.16,3.06-6.01,5.06-8.56,6.02-2.55.96-4.51,1.34-5.87,1.43-1.34.09-2.8-.04-4.03-1.17-.47-.55-.7-1.19-.7-1.93,0-1.56,1.07-3.53,3.21-5.9,3.16-3.47,8.3-6.74,15.42-9.82.23-1.36.35-2.57.35-3.62,0-3.08-1.21-4.62-3.62-4.62-1.01,0-2.18.35-3.51,1.05-2.34,1.29-4.46,3.23-6.37,5.84-1.75,2.49-3.27,5.05-4.56,7.65-.74,1.48-23.73,51.92-24.12,52.51s-1.89.56-2.17.49c-.75-.19-1.52-.31-2.22-.93Zm39.37-52.64c-1.25.74-2.97,1.88-4.02,2.62-1.44,1.09-2.71,2.32-3.8,3.68-1.09,1.36-1.64,2.38-1.64,3.04,0,.47.19.7.58.7s.95-.21,1.69-.64c1.52-.9,3.22-2.16,5.11-3.8,1.89-1.64,3.44-3.13,4.65-4.47,1.21-1.34,2.82-3.52,1.89-3.16,0,0-3.91,1.71-4.47,2.03Z"/><path class="cls-1" d="m393.94,94.77c-.9-1.71-1.34-3.78-1.34-6.19,0-1.25.12-2.59.35-4.03.7-4.21,1.92-8.59,3.65-13.15,1.73-4.56,3.48-8.62,5.23-12.18,1.75-3.56,3.02-5.97,3.8-7.22,5.45-9.15,11.49-17.73,18.11-25.74,6.62-8,12.64-13.58,18.05-16.74,1.56-.82,3.45-1.23,5.67-1.23,2.84,0,4.27.9,4.27,2.69,0,.39-.06.84-.18,1.34-1.13,3.51-4.77,8.96-10.93,16.36-4.36,5.18-9.1,10.36-14.2,15.54-5.1,5.18-9.64,9.41-13.61,12.68-.9.66-1.7,1.56-2.42,2.69-.72,1.13-1.72,3.08-3.01,5.84-5.45,11.37-8.18,19.83-8.18,25.36v.64c.19,3,1.21,4.5,3.04,4.5l.58-.06c3.31-.47,7.62-3.04,12.91-7.71,6.39-5.69,11.96-11.84,16.71-18.46.9-1.25,1.66-2.44,2.28-3.59.62-1.15.94-1.86.96-2.13.02-.27.12-.5.32-.67.19-.18.45-.26.76-.26.58,0,.88.27.88.82,0,1.01-.99,2.92-2.98,5.73-2.42,3.43-5.59,7.27-9.52,11.51-3.94,4.25-7.96,8-12.07,11.28-4.11,3.27-7.62,5.14-10.55,5.61-.62.08-1.23.12-1.81.12-3.39,0-5.65-1.11-6.78-3.33Zm20.8-41.66c.5-.39,1.71-1.49,3.62-3.3,1.91-1.81,4.07-3.9,6.49-6.28,4.36-4.28,8.51-8.71,12.45-13.26,2.14-2.61,4.2-5.33,6.16-8.15,1.97-2.82,3.47-5.18,4.5-7.07,1.03-1.89,1.55-3.11,1.55-3.65,0-.12-.02-.19-.06-.23-.04-.04-.08-.06-.12-.06-.47,0-1.56.7-3.27,2.1-6.93,5.92-14.45,14.43-22.55,25.53-3.16,4.32-5.81,8.22-7.95,11.69-1.25,1.95-1.87,3.02-1.87,3.21,0,.04.02.06.06.06.15,0,.49-.19.99-.58Z"/><path class="cls-1" d="m418.01,135.2c-2.18-1.29-3.27-3.49-3.27-6.6,0-3.66.74-7.18,2.22-10.55,1.48-3.37,3.43-6.58,5.84-9.64,2.42-3.06,5.09-5.94,8.03-8.65,2.94-2.71,5.91-5.22,8.91-7.54,3-2.32,5.8-4.43,8.41-6.34,2.22-1.6,4.17-3.04,5.84-4.32l1.69-5.43c2.34-7.4,3.62-17.94,3.62-17.94-1.64,1.91-3.37,4.36-5.2,7.36-8.14,12.74-13.96,20.2-17.47,22.38-1.01.66-2.36.99-4.03.99-2.38,0-3.82-.72-4.32-2.16-.27-.74-.41-1.56-.41-2.45,0-2.06.88-5.26,2.63-9.58l.82-2.22c1.32-3.7,2.7-6.87,4.12-9.49s2.64-4.27,3.65-4.94c1.01-.66,1.93-.99,2.75-.99l1.46.06c1.56.16,2.55.37,2.98.64.7.43,1.09.82,1.17,1.17.08.35.12.6.12.76,0,1.01-1.09,3.49-3.27,7.42-2.34,4.25-4.56,8.71-6.66,13.38-.9,1.99-1.34,3.14-1.34,3.45.23,0,.97-.58,2.22-1.75,2.88-2.65,6.62-8.06,11.22-16.24,2.02-3.58,3.63-6.27,4.82-8.06,1.19-1.79,2.19-2.95,3.01-3.48s1.69-.79,2.63-.79c2.57,0,4.17.31,4.79.93.31.35.55.72.7,1.11.19.66.29,1.97.29,3.91,0,5.61-.9,11.1-2.69,16.48,2.84-1.67,5.86-3.76,9.06-6.25,2.14-1.64,4.13-3.08,5.96-4.32,2.06-1.36,3.68-2.04,4.85-2.04,1.25,0,1.87.43,1.87,1.29,0,.27-.11.58-.32.91-.21.33-.58.5-1.08.5l-.53-.06c-.93,0-2.51.78-4.73,2.34-2.38,1.67-4.97,3.64-7.77,5.9-3.51,2.84-6.51,5.08-9,6.72-.97,3.19-2.69,7.55-5.14,13.06s-5.37,11.23-8.73,17.15c-3.37,5.92-6.89,11.15-10.58,15.69-3.68,4.54-7.24,7.43-10.66,8.68-1.52.47-2.92.7-4.21.7-1.6,0-3.02-.37-4.27-1.11Zm4.56-2.57c1.91-1.01,4.06-3.02,6.46-6.02,2.4-3,4.77-6.33,7.13-9.99,2.36-3.66,4.39-6.98,6.11-9.96,1.71-2.98,2.8-4.98,3.27-5.99,1.64-3.35,3.05-6.35,4.24-9,1.19-2.65,1.78-4.13,1.78-4.44-3.54,2.18-7.4,4.98-11.57,8.38-4.17,3.41-8.07,7.15-11.71,11.22-3.64,4.07-6.25,7.82-7.83,11.25-1.58,3.43-2.37,6.39-2.37,8.88,0,1.29.16,2.53.47,3.74.55,1.6,1.36,2.4,2.45,2.4.47,0,.99-.16,1.58-.47Z"/><path class="cls-1" d="m504.02,116.8c-5.02-2.07-8.65-5.12-10.87-9.17-2.22-4.05-3.33-8.26-3.33-12.62,0-3,.35-5.75,1.05-8.24.55-1.91,1.36-3.89,2.45-5.96,2.8-5.3,6.95-9.97,12.45-14.02,5.49-4.05,11.76-7.11,18.81-9.17,3.7-1.05,9.48-1.81,9.76-1.81,3.19,0,.23,5.2-3.51,5.2-4.44,0-9.17,1.09-14.2,3.27-7.87,3.66-13.83,8.24-17.88,13.73-4.05,5.49-6.08,11.1-6.08,16.83,0,.66.02,1.31.06,1.93.55,5.53,2.66,9.95,6.34,13.26,3.68,3.31,8.31,4.97,13.88,4.97,2.34,0,5.18-.59,8.53-1.78,3.35-1.19,6.49-2.7,9.41-4.53,8.92-5.96,18.29-16.3,28.1-31.03,9.82-14.72,18.79-31.9,26.94-51.53.97-2.38,1.63-4.19,1.96-5.43.33-1.25,4.41-15.4,4.41-15.72,0-.04-.02-.07-.06-.09-.04-.02-.27-.03-.7-.03-2.03,0-7.13.41-15.31,1.23-9.39.97-17.26,1.95-23.6,2.92-3.51.58-6.41,1.12-8.71,1.61-2.3.49-4.87,1.12-7.71,1.9-1.67.47-2.8.83-3.36,1.08-.56.25-3.05,1.2-3.05,1.55,0,.62,1.39,1.12-.23,1.7-1.62.58-3.48.88-5.58.88-.82,0-1.45-.06-1.9-.18-.45-.12-.85-.39-1.2-.82-.66-.78-.99-1.52-.99-2.22,0-.51.16-1.54.47-2,.74-1.17,2.26-2.12,4.56-2.86,13.52-3.93,33.44-6.35,59.77-7.25l9.23-.29s34.24-2.1,41.13-2.1h3.27c4.75,0,7.48.2,8.18.58.5.23.76.56.76.99s-.07.74-.2.93c-.14.2-.75.29-1.84.29s-3.31-.12-6.66-.35c-.93-.04-2.04-.06-3.33-.06-3.08,0-7.17.16-12.27.47-7.87.47-13.2.82-16.01,1.05l-2.34.12c-1.91,4.29-2.99,6.76-3.24,7.42-.25.66-3.51,8.32-4.27,9.87-.76,1.56-1.78,3.82-3.07,6.78l-.58,1.23c-2.49,5.88-6.13,13.67-10.9,23.37-4.77,9.7-10.51,19.59-17.21,29.68-6.7,10.09-14.16,18.62-22.38,25.59-5.92,4.87-11.25,7.91-15.98,9.11-4.73,1.21-8.5,1.81-11.31,1.81-3.9,0-7.79-.7-11.69-2.1Z"/><path class="cls-1" d="m603.35,77.53c-.93-.78-1.4-1.93-1.4-3.45,0-1.29.31-2.8.93-4.56l-2.69,2.1c-.74.74-2.02,1.81-3.83,3.21s-3.79,2.53-5.93,3.39c-.93.35-1.81.53-2.63.53-1.01,0-1.94-.26-2.78-.79s-1.26-1.35-1.26-2.48v-.23c.23-2.1,1.29-4.62,3.16-7.54,1.87-2.92,4.03-5.53,6.49-7.83,2.77-2.65,5.26-3.97,7.48-3.97,1.48,0,2.78.35,3.91,1.05,1.32.82,1.99,1.99,1.99,3.51v2.1c.78-.74,1.54-1.46,2.28-2.16.74-.7,1.41-1.23,2.02-1.58.6-.35,1.28-.53,2.02-.53,1.05,0,2.04.25,2.98.76.74.47,1.24.86,1.49,1.17.25.31.38.62.38.93,0,.55-.5,1.31-1.49,2.28-.99.97-2.18,2.36-3.56,4.15-1.38,1.79-2.37,3.3-2.95,4.53s-.88,2.11-.88,2.66c0,.97.5,1.46,1.52,1.46,1.09,0,2.86-.56,5.32-1.69,3.23-1.56,6.5-3.58,9.82-6.08,1.21-.93,1.95-1.54,2.22-1.81,2.3-1.91,3.54-2.88,3.74-2.92.19-.04.39-.06.58-.06.39,0,.66.11.82.32.15.21.23.42.23.61,0,.27-.12.55-.35.82-.23.27-.62.55-1.17.82-.55.27-1.01.55-1.4.82-1.21.93-2.38,1.87-3.51,2.8-2.45,2.14-5.01,4.06-7.65,5.76-2.65,1.69-5.65,2.8-9,3.3-.74.12-1.44.18-2.1.18-1.95,0-3.54-.53-4.79-1.58Zm-7.48-6.19c3.19-2.26,5.47-4.07,6.84-5.43.7-.7.47-3.38.47-3.83s-.14-.67-.41-.67c-.35,0-.76.16-1.23.47-.74.51-2.14,1.97-4.21,4.38-3.31,3.9-5.22,6.37-5.73,7.42v.12s.04.06.12.06c.43,0,1.81-.84,4.15-2.51Z"/><path class="cls-1" d="m642.44,101.43c-3-.47-4.81-1.77-5.43-3.91-.62-2.14-.93-4.15-.93-6.02,0-1.32.12-2.73.35-4.21.55-3.62,1.33-7.06,2.37-10.31,1.03-3.25,1.88-5.66,2.54-7.22,0-.04-.02-.06-.06-.06-.35,0-2.45,1.73-6.31,5.2-4.56,3.93-7.3,6.04-8.24,6.31-.51.12-.97.18-1.4.18-1.36,0-2.45-.6-3.27-1.81-.58-.82-.88-1.79-.88-2.92,0-1.05.25-2.24.76-3.56,2.06-4.48,4.67-8.29,7.83-11.42,3.16-3.13,5.94-4.7,8.36-4.7.66,0,1.44.25,2.34.76.9.51,1.68,1.13,2.37,1.87.68.74,1.02,1.44,1.02,2.1,0,.9,1.93-1.54,4.97-7.3,10.28-19.09,19.49-32.68,27.64-40.78,2.84-2.53,5.26-3.75,7.27-4.5s3.44-.7,4.29-.7c1.32,0,2.32.31,2.98.93.47.39.7.97.7,1.75,0,1.44-1.07,4.11-3.21,8-3.08,5.49-7.58,11.93-13.5,19.31-5.92,7.38-11.84,13.94-17.76,19.66-2.18,1.99-3.91,4.09-5.2,6.31-1.75,3.04-3.72,7.85-5.9,14.43-.66,2.03-1.32,4.38-1.99,7.07-.93,3.66-1.4,6.72-1.4,9.17,0,1.56.27,2.75.82,3.56.27.27.56.51.88.7.31.19.55.41.7.64.15.23.23.43.23.58,0,.62-.62.93-1.87.93l-1.05-.06Zm-10.84-27.64c1.26-.97,2.63-2.15,4.09-3.53,1.46-1.38,2.75-2.73,3.86-4.03,1.11-1.3,1.67-2.29,1.67-2.95,0-.93-.25-1.4-.76-1.4-.97,0-2.67,1.45-5.08,4.35-2.42,2.9-4.25,5.35-5.49,7.33-.55.86-.82,1.38-.82,1.58,0,.08.04.12.12.12.35,0,1.16-.49,2.42-1.46Zm35.79-30.67c.7-.82,1.4-1.67,2.1-2.57,3.04-3.58,5.91-7.06,8.62-10.43,2.71-3.37,4.7-6.16,5.99-8.38,1.44-2.53,2.49-4.56,3.16-6.08.66-1.52.99-2.49.99-2.92,0-.15-.06-.23-.18-.23-.82,0-3.31,2.3-7.48,6.89-1.87,2.07-3.49,4.03-4.85,5.9-5.53,7.52-11.92,17.61-19.16,30.27,0,0,9.48-10.85,10.81-12.45Z"/><path class="cls-1" d="m659.18,83.99c-1.44,0-2.62-.43-3.53-1.29-.92-.86-1.62-1.77-2.1-2.75-.49-.97-.73-2.08-.73-3.33,0-1.05.18-2.18.53-3.39.82-2.65,1.95-5.16,3.39-7.54,1.44-2.38,2.71-4.07,3.8-5.08,1.09-1.01,1.95-1.56,2.57-1.64.62-.08,1.05-.12,1.29-.12.82,0,1.71.16,2.69.47.78.51,1.54.76,2.28.76h.58c.55,0,1.16.18,1.84.53.68.35,1.24.87,1.67,1.55.43.68,1.29,1.16,2.6,1.43,1.3.27,2.6.41,3.89.41,2.3,0,4.42-.31,6.37-.93,1.48-.47,2.61-.95,3.39-1.46.31-.19.6-.29.88-.29l.29.06c.35.12.53.26.56.44.02.18.03.28.03.32,0,.27-.16.56-.47.88-1.67,1.21-3.77,1.93-6.28,2.16s-4.39.35-5.64.35c-1.87,0-3.54-.14-5.02-.41-.04,1.87-.41,3.53-1.11,5s-1.56,2.95-2.57,4.47l-.47.64c-3.62,5.57-7.05,8.49-10.28,8.76h-.41Zm3.39-4.73c1.67-1.6,3.37-3.7,5.08-6.31,2.37-3.66,3.56-6.29,3.56-7.89,0-.43-.27-.9-.82-1.4-.47-.55-.8-.82-.99-.82-.16,0-.28.16-.38.47-.1.31-1.04,1.5-2.83,3.56-1.36,1.52-2.68,3.44-3.94,5.76-1.27,2.32-2.15,4.35-2.66,6.11-.08.31-.12.6-.12.88,0,.58.21.88.64.88h.06c.66,0,1.46-.41,2.4-1.23Z"/><path class="cls-1" d="m682.14,88.02c-.93-.7-1.4-1.75-1.4-3.16l.06-.93c0-.62.37-2.04,1.11-4.27s1.69-4.85,2.86-7.89c1.6-3.97,2.94-7.07,4.03-9.29.97-1.95,1.46-3.16,1.46-3.62v-.06c0-.19.08-.47.23-.82.55-1.25,1.56-1.87,3.04-1.87l.93.06c1.48.2,2.65.67,3.51,1.43.86.76,1.29,1.65,1.29,2.66s-.59,2.59-1.78,4.62c-1.19,2.03-2.66,4.69-4.41,8l-2.45,4.56c1.25-1.67,2.42-3.33,3.51-4.97,2.06-3.12,4.05-5.73,5.96-7.83,1.71-1.67,4.01-2.51,6.89-2.51,1.6,0,3.06.45,4.38,1.34,1.75,1.44,2.96,2.55,3.62,3.33.47.55.93,1.01,1.4,1.4,1.09.9,2.28,1.34,3.56,1.34.97,0,2.12-.23,3.45-.7,2.02-.7,4.79-1.87,8.3-3.51.43-.15.8-.23,1.11-.23l.47.06c.58.2.88.51.88.93,0,.66-.61,1.13-1.81,1.4-.31.04-.66.14-1.05.29-1.67.66-3.31,1.4-4.91,2.22-4.56,2.34-8.51,3.51-11.86,3.51-1.56,0-2.86-.27-3.91-.82-1.87-1.01-3.29-2.2-4.27-3.56-1.21-1.44-2.22-2.16-3.04-2.16-.62,0-1.32.29-2.1.88-2.61,2.22-5.11,4.98-7.51,8.27-2.4,3.29-4.02,5.64-4.88,7.04l-.12.12c-.51.93-1.27,2.04-2.28,3.3-1.01,1.27-1.97,1.9-2.86,1.9-.47,0-.93-.15-1.4-.47Z"/><path class="cls-1" d="m732.09,80.6c-3.54-1.09-5.37-2.38-5.46-3.86-.1-1.48-.15-2.34-.15-2.57,0-2.57.9-5.3,2.69-8.18,1.91-3.08,4.19-5.6,6.84-7.57,2.65-1.97,5.04-2.95,7.19-2.95l.82.06c3.39.55,5.08,2.03,5.08,4.44,0,.9-.29,1.71-.88,2.45-.97,1.29-2.33,2.38-4.06,3.27-1.73.9-3.4,1.58-5,2.04-1.6.47-2.69.72-3.27.76-1.64,2.49-2.45,4.56-2.45,6.19v.53c.23,1.67,1.21,2.77,2.92,3.27.58.16,1.23.23,1.93.23,2.1,0,5.39-1.03,9.87-3.1,3.16-1.48,6.04-3.16,8.65-5.05,2.61-1.89,4.85-3.61,6.72-5.17,1.6-1.44,2.57-2.16,2.92-2.16.47,0,.7.23.7.7,0,.55-.37,1.07-1.11,1.58l-.82.58c-5.18,4.4-10.73,8.14-16.65,11.22-5.1,2.42-9.5,3.62-13.2,3.62-1.17,0-2.26-.12-3.27-.35Zm11.69-17.03c1.4-1.11,2.1-2,2.1-2.66,0-.47-.25-.7-.76-.7-.35,0-.82.12-1.4.35-1.36.62-2.56,1.41-3.59,2.37-1.03.96-1.84,1.8-2.42,2.54l-.88,1.17c3.23-.93,5.55-1.96,6.95-3.07Z"/><path class="cls-1" d="m270.55,82.71c-.69-1.53-1.73-2.81-2.88-4.01-3.02-3.18-6.51-5.76-10.24-8.03-3.88-2.37-7.96-4.37-12.07-6.29-4.81-2.26-9.74-4.25-14.79-5.9-4.07-1.33-8.16-2.6-12.23-3.91-9.01-2.9-18.17-5.22-27.41-7.25-4.3-.94-8.61-1.78-12.94-2.59-3.46-.65-6.94-1.19-10.41-1.78-2.77-.47-5.53-.94-8.3-1.41-4.23-.72-8.45-1.47-12.69-2.13-3.37-.53-6.75-.97-10.13-1.43-3.82-.52-7.63-1.05-11.45-1.53-3.22-.4-6.45-.7-9.67-1.1-3.17-.39-6.33-.82-9.48-1.32-1.24-.19-2.45-.6-3.66-.94-.24-.07-.45-.25-.72-.41.67-.82,1.51-1.25,2.33-1.69,4.34-2.32,8.91-4.08,13.61-5.45,6.86-2.01,13.84-3.57,20.83-5.07,5.11-1.1,10.21-2.19,15.33-3.24,4.69-.95,9.38-1.86,14.08-2.74,3.51-.66,7.04-1.29,10.57-1.85,3.31-.53,6.64-.98,9.96-1.45,2.5-.36,5.01-.69,7.52-1.04,2.07-.29,4.14-.6,6.21-.88,2.46-.32,4.91-.62,7.37-.92,2.19-.26,4.37-.51,6.56-.77,2.46-.29,4.92-.58,7.38-.85,2.41-.27,4.81-.54,7.23-.77l14.33-.66c-.47.21-.6.31-.74.34-.7.12-1.41.21-2.12.34-.97.18-1.59.87-1.65,1.79-.06.92.5,1.63,1.51,1.88.31.08.66.12.98.08,2.25-.27,4.46-.69,6.57-1.51.65-.25,1.3-.64,1.81-1.11,1.52-1.42,1.26-3.42-.55-4.4-.62-.33-1.33-.55-2.02-.69-3.1-.61-6.24-.73-9.37-.54-3.85.23-7.69.58-11.53.89-1.26.1-2.52.26-3.78.4-2.4.28-4.81.58-7.21.87-2.3.27-4.59.51-6.89.79-3.06.38-6.11.79-9.17,1.18-2.89.37-5.79.69-8.68,1.11-4.84.7-9.68,1.42-14.51,2.2-4.78.77-9.56,1.54-14.31,2.46-7.5,1.46-14.98,3.02-22.45,4.6-6.94,1.47-13.85,3.06-20.71,4.86-5.87,1.54-11.57,3.52-17,6.25-1.17.59-2.28,1.32-3.4,2.03-.83.53-1.44,1.3-1.9,2.15-.72,1.32-.46,2.98.67,3.97.49.43,1.06.81,1.65,1.08.85.38,1.73.72,2.63.94,2.78.67,5.61,1.1,8.46,1.41,2.19.24,4.38.47,6.56.74,3.11.38,6.22.8,9.33,1.2,2.95.37,5.9.7,8.84,1.11,3.65.5,7.3,1.03,10.94,1.59,2.99.46,5.97.97,8.95,1.48,2.71.46,5.41.97,8.12,1.43,3.63.62,7.28,1.15,10.9,1.82,5.3.98,10.6,1.95,15.85,3.15,4.98,1.13,9.96,2.3,14.9,3.61,7.81,2.07,15.49,4.57,23.18,7.05,3.91,1.26,10.15,3.71,13.88,5.44,6.09,2.84,12.14,5.77,17.55,9.82,1.27.95,2.46,2,3.63,3.08,1.26,1.17,2.43,2.4,3.21,3.92.55,1.08.65,2.17.28,3.35-.58,1.88-1.77,3.27-3.31,4.41-3.24,2.41-7.03,3.55-10.94,4.34-4.79.96-9.66,1.44-14.54,1.62-3.54.13-7.09.25-10.63.25-4.84,0-9.69-.09-14.53-.17-7.33-.13-14.65-.27-21.98-.43-6.39-.14-12.78-.32-19.16-.51-6.83-.2-13.65-.44-20.48-.67-3.19-.11-6.39-.23-9.58-.36-5.45-.21-10.9-.43-16.34-.62-4.13-.15-8.26-.29-12.39-.38-5.89-.13-11.79-.25-17.68-.31-11.13-.13-22.25-.22-33.38-.32-7.55-.06-15.1-.1-22.64-.15-4.07-.03-8.15-.1-12.22-.1-4.19,0-8.37.05-12.56.13-4.36.08-8.71.19-13.07.3-.61.02-1.09.51-1.09,1.12v1.61c0,.63.53,1.14,1.16,1.12,1.85-.06,3.71-.13,5.56-.19,1.71-.05,3.42-.05,5.12-.08,5.23-.07,10.46-.19,15.7-.19,5.84,0,11.67.13,17.51.19,11.35.11,22.7.19,34.04.31,8.87.09,17.74.18,26.61.33,6.77.11,13.55.32,20.32.49.72.02,1.43.05,2.15.08,3.96.17,7.92.36,11.89.51,3.91.15,7.82.26,11.73.4,5.01.18,10.02.4,15.02.57,2.2.08,4.41.07,6.61.13,6.22.16,12.44.34,18.67.49,4.79.12,9.58.21,14.38.29,4.02.07,8.04.14,12.06.18,8.7.09,17.4.1,26.09-.67,4.07-.36,8.08-1.02,12.01-2.09,3.04-.83,5.92-2.04,8.51-3.9,2.59-1.86,4.5-4.17,5.25-7.35.42-1.8.19-3.49-.56-5.15Z"/><path class="cls-1" d="m270.55,82.71l.66-.3c-.74-1.64-1.85-2.98-3.01-4.21-3.07-3.24-6.62-5.86-10.38-8.15-3.92-2.39-8.02-4.4-12.14-6.33-4.83-2.27-9.79-4.27-14.87-5.93-4.07-1.33-8.16-2.6-12.23-3.91-9.04-2.91-18.23-5.23-27.48-7.26-4.31-.94-8.63-1.79-12.96-2.6-3.47-.65-6.96-1.19-10.42-1.78-2.77-.47-5.53-.94-8.3-1.41-4.22-.72-8.45-1.47-12.7-2.14-3.38-.53-6.77-.97-10.15-1.43-3.82-.52-7.63-1.05-11.46-1.53-3.24-.4-6.47-.7-9.67-1.1-3.16-.39-6.32-.82-9.46-1.31-1.16-.18-2.34-.58-3.58-.93,0,.01-.21-.13-.55-.34l-.37.63.56.46c.55-.68,1.27-1.06,2.11-1.5,4.28-2.29,8.81-4.03,13.48-5.39,6.83-2,13.8-3.56,20.78-5.06,5.11-1.1,10.21-2.19,15.32-3.23,4.68-.95,9.37-1.86,14.07-2.74,3.51-.66,7.03-1.28,10.55-1.85,3.3-.53,6.62-.98,9.95-1.45,2.5-.36,5.01-.69,7.52-1.04,2.08-.29,4.14-.6,6.2-.88,2.45-.32,4.91-.62,7.37-.92,2.18-.26,4.37-.51,6.56-.77,2.46-.29,4.92-.58,7.38-.85,2.41-.27,4.81-.54,7.21-.77l-.07-.72.03.72,14.33-.66-.03-.72-.3-.66c-.25.11-.41.2-.51.25l-.09.04.02.05v-.05s-.02,0-.02,0l.02.05v-.05s.06.24.06.24l-.04-.24h-.03s.07.24.07.24l-.04-.24c-.68.12-1.39.21-2.12.34-.62.11-1.17.4-1.57.84-.4.44-.63,1.01-.67,1.62v.17c0,.58.19,1.15.56,1.58.37.43.9.73,1.5.88.28.07.59.12.91.12l.33-.02c2.28-.27,4.56-.7,6.75-1.56.73-.29,1.45-.71,2.04-1.26.79-.73,1.22-1.67,1.22-2.6,0-1.2-.72-2.32-1.92-2.96-.71-.38-1.48-.61-2.22-.76-2.28-.45-4.57-.64-6.87-.64-.9,0-1.8.03-2.69.08-3.86.23-7.71.58-11.54.89-1.28.1-2.55.26-3.8.41-2.41.28-4.81.58-7.21.87-2.29.27-4.59.51-6.89.79-3.06.38-6.12.79-9.17,1.18-2.88.37-5.79.69-8.69,1.11-4.85.7-9.69,1.42-14.53,2.21-4.78.77-9.56,1.54-14.33,2.47-7.5,1.46-14.99,3.02-22.46,4.61-6.95,1.47-13.87,3.06-20.74,4.87-5.9,1.55-11.66,3.54-17.14,6.3-1.22.62-2.35,1.36-3.46,2.06-.97.62-1.65,1.49-2.15,2.42-.33.6-.49,1.27-.49,1.92,0,1.09.45,2.18,1.32,2.94.54.47,1.16.89,1.83,1.19.87.39,1.8.75,2.76.98,2.82.68,5.68,1.11,8.55,1.42,2.19.24,4.38.47,6.55.74,3.11.38,6.21.8,9.33,1.2,2.95.37,5.9.7,8.83,1.11,3.65.5,7.29,1.03,10.93,1.59,2.98.46,5.96.97,8.94,1.48,2.7.46,5.41.97,8.12,1.43,3.64.62,7.29,1.15,10.89,1.82,5.3.98,10.59,1.95,15.82,3.14,4.98,1.13,9.95,2.3,14.88,3.6,7.79,2.06,15.46,4.56,23.14,7.04,3.87,1.25,10.11,3.69,13.79,5.41,6.08,2.83,12.09,5.75,17.42,9.75,1.24.93,2.41,1.96,3.57,3.03,1.24,1.15,2.34,2.32,3.06,3.72.29.56.42,1.1.42,1.65,0,.37-.06.75-.19,1.15-.53,1.7-1.59,2.95-3.05,4.05-3.1,2.32-6.78,3.43-10.65,4.21-4.74.95-9.57,1.43-14.42,1.61-3.54.13-7.08.25-10.61.25h-.04c-4.82,0-9.65-.09-14.47-.17-7.32-.13-14.65-.27-21.97-.43-6.39-.14-12.77-.32-19.16-.51-6.82-.2-13.65-.44-20.47-.67-3.19-.11-6.38-.23-9.57-.36-5.45-.21-10.9-.43-16.35-.62-4.13-.15-8.26-.29-12.4-.38-5.89-.13-11.79-.25-17.69-.31-11.13-.13-22.25-.22-33.38-.32-7.55-.06-15.1-.1-22.64-.15-3.98-.03-7.96-.1-11.95-.1h-.27c-4.19,0-8.38.05-12.57.13-4.36.08-8.72.19-13.07.3-1,.03-1.8.84-1.8,1.85v1.61c0,1.02.83,1.85,1.85,1.85h.07s0,0,0,0c1.85-.06,3.71-.13,5.56-.19,1.69-.05,3.4-.05,5.11-.08,5.18-.07,10.35-.19,15.52-.19h.17c5.83,0,11.66.13,17.51.19,11.35.11,22.7.19,34.04.31,8.87.09,17.74.18,26.6.33,6.77.11,13.54.32,20.32.49.71.02,1.42.05,2.13.08,3.96.17,7.92.36,11.89.51,3.91.15,7.82.26,11.73.4,5.01.18,10.01.4,15.03.57,2.22.08,4.43.07,6.62.13,6.22.16,12.44.34,18.67.49,4.79.12,9.59.21,14.38.29,4.02.07,8.05.14,12.07.18,2.27.02,4.54.04,6.81.04,6.44,0,12.9-.14,19.35-.72,4.1-.36,8.15-1.03,12.14-2.11,3.1-.84,6.07-2.09,8.74-4.01,2.68-1.92,4.74-4.4,5.54-7.78.15-.65.23-1.3.23-1.94,0-1.27-.3-2.5-.83-3.67l-.66.3-.66.3c.46,1.03.7,2.04.7,3.08,0,.52-.06,1.06-.19,1.61-.71,2.98-2.47,5.14-4.97,6.93-2.5,1.79-5.3,2.98-8.28,3.78-3.89,1.06-7.85,1.71-11.88,2.07-6.39.57-12.8.71-19.22.71-2.26,0-4.53-.02-6.79-.04-4.02-.04-8.04-.11-12.06-.18-4.79-.09-9.58-.18-14.37-.29-6.22-.15-12.44-.33-18.67-.49-2.22-.06-4.42-.05-6.6-.13-5-.17-10.01-.39-15.02-.57-3.91-.14-7.82-.25-11.72-.4-3.96-.15-7.92-.34-11.88-.51-.72-.03-1.44-.06-2.16-.08-6.77-.17-13.55-.37-20.33-.49-8.87-.15-17.74-.24-26.61-.33-11.35-.12-22.7-.2-34.04-.31-5.83-.06-11.67-.18-17.52-.19h-.17c-5.19,0-10.37.12-15.54.19-1.7.02-3.41.02-5.14.08-1.86.06-3.71.12-5.56.19h0s-.01,0-.01,0c-.22,0-.39-.18-.39-.4v-1.61c0-.21.17-.39.39-.4,4.35-.11,8.71-.22,13.06-.3,4.18-.08,8.36-.12,12.54-.13h.27c3.97,0,7.96.07,11.94.1,7.55.05,15.1.09,22.64.15,11.13.09,22.25.19,33.38.32,5.89.07,11.78.18,17.67.31,4.12.09,8.25.23,12.38.38,5.45.19,10.89.42,16.34.62,3.19.12,6.39.25,9.58.36,6.82.23,13.65.47,20.48.67,6.39.19,12.78.36,19.17.51,7.33.17,14.65.31,21.98.43,4.83.08,9.66.17,14.5.17h.04c3.56,0,7.12-.12,10.66-.25,4.91-.18,9.82-.67,14.65-1.64,3.96-.79,7.86-1.96,11.23-4.47,1.62-1.2,2.93-2.73,3.56-4.78.16-.53.25-1.06.25-1.58,0-.8-.2-1.58-.58-2.32-.84-1.64-2.08-2.93-3.36-4.12-1.17-1.09-2.38-2.16-3.68-3.13-5.48-4.11-11.58-7.06-17.68-9.9-3.76-1.75-10.01-4.2-13.96-5.48-7.68-2.48-15.38-4.99-23.22-7.06-4.96-1.31-9.94-2.48-14.93-3.62-5.28-1.2-10.58-2.18-15.88-3.16-3.64-.67-7.29-1.21-10.91-1.82-2.7-.46-5.41-.96-8.12-1.43-2.98-.51-5.96-1.02-8.96-1.48-3.65-.56-7.3-1.09-10.95-1.59-2.95-.4-5.91-.73-8.85-1.11-3.11-.39-6.22-.81-9.33-1.2-2.19-.27-4.39-.51-6.57-.74-2.83-.31-5.62-.73-8.36-1.39-.84-.2-1.68-.52-2.51-.9-.52-.23-1.03-.57-1.48-.96-.54-.47-.82-1.14-.82-1.84,0-.42.1-.84.31-1.23.43-.79.96-1.45,1.65-1.89,1.12-.71,2.21-1.43,3.33-1.99,5.37-2.71,11.02-4.66,16.85-6.2,6.85-1.8,13.74-3.39,20.67-4.86,7.47-1.58,14.95-3.14,22.44-4.6,4.73-.92,9.51-1.69,14.28-2.46,4.83-.78,9.66-1.5,14.5-2.2,2.87-.42,5.77-.74,8.67-1.11,3.06-.39,6.11-.8,9.17-1.18,2.28-.28,4.58-.52,6.88-.79,2.41-.28,4.81-.58,7.21-.87,1.26-.15,2.51-.3,3.75-.4,3.85-.32,7.68-.66,11.51-.89.87-.05,1.74-.08,2.6-.08,2.21,0,4.41.18,6.59.61.64.13,1.28.33,1.82.61.82.45,1.15,1.06,1.16,1.68,0,.49-.22,1.03-.76,1.54-.43.4-1,.75-1.58.97-2.03.79-4.19,1.21-6.4,1.47h-.16c-.17,0-.37-.02-.55-.07-.37-.09-.6-.25-.75-.42-.14-.17-.22-.36-.22-.64v-.08c.02-.31.13-.55.29-.73.17-.18.41-.33.76-.39.68-.12,1.38-.21,2.11-.34.2-.04.33-.1.44-.16.12-.06.25-.13.47-.23l3.38-1.55-18.07.83h-.02c-2.42.23-4.83.5-7.24.77-2.46.28-4.93.57-7.38.85-2.19.25-4.37.5-6.56.77-2.46.3-4.92.6-7.38.92-2.08.27-4.15.59-6.21.88-2.5.35-5.01.68-7.52,1.04-3.32.47-6.65.92-9.97,1.45-3.54.57-7.07,1.2-10.58,1.86-4.7.88-9.4,1.79-14.09,2.74-5.12,1.04-10.23,2.14-15.34,3.24-6.99,1.5-13.99,3.07-20.88,5.08-4.74,1.39-9.36,3.16-13.75,5.51-.8.43-1.76.9-2.55,1.87l-.53.65.73.43c.2.11.42.34.9.49,1.19.33,2.42.75,3.74.96,3.16.5,6.33.92,9.5,1.32,3.24.4,6.47.7,9.67,1.1,3.82.48,7.63,1.01,11.45,1.53,3.38.46,6.76.9,10.12,1.43,4.23.67,8.45,1.42,12.68,2.13,2.77.47,5.53.94,8.3,1.41,3.48.59,6.95,1.13,10.4,1.77,4.32.81,8.63,1.65,12.92,2.59,9.22,2.02,18.37,4.33,27.35,7.23,4.08,1.31,8.17,2.58,12.23,3.91,5.02,1.64,9.92,3.62,14.71,5.87,4.11,1.93,8.16,3.91,12,6.26,3.69,2.25,7.13,4.8,10.09,7.92,1.12,1.18,2.1,2.39,2.74,3.81l.66-.3Z"/><circle class="cls-1" cx="287.06" cy="54.13" r="3.77"/><path class="cls-1" d="m597.45,32.16v-.12c0-.47.49-1.19,1.46-2.16,1.44-1.4,2.37-2.68,2.78-3.83.41-1.15.61-2.31.61-3.48l-.06-1.46c-.12-.97-.18-1.69-.18-2.16,0-.51.07-.9.2-1.17.14-.27.34-.53.61-.76.78-.66,1.62-.99,2.51-.99,1.56,0,2.67.8,3.33,2.4.16.58.23,1.17.23,1.75,0,2.38-1.3,4.93-3.91,7.65-1.75,1.71-3.22,2.9-4.41,3.56-1.19.66-2.04.99-2.54.99-.27,0-.49-.08-.64-.23Z"/></svg>